<svg width="24" height="25" viewBox="0 0 24 25" fill="none" xmlns="http://www.w3.org/2000/svg">
<path d="M12 2.6875C17.523 2.6875 22 7.1645 22 12.6875C22 18.2105 17.523 22.6875 12 22.6875C10.2328 22.6904 8.49667 22.2227 6.97001 21.3325L2.00401 22.6875L3.35601 17.7195C2.46511 16.1924 1.99706 14.4555 2.00001 12.6875C2.00001 7.1645 6.47701 2.6875 12 2.6875ZM8.59201 7.9875L8.39201 7.9955C8.26254 8.00339 8.13599 8.0374 8.02001 8.0955C7.91153 8.15693 7.81251 8.23372 7.72601 8.3235C7.60601 8.4365 7.53801 8.5345 7.46501 8.6295C7.09514 9.1104 6.89599 9.70081 6.89901 10.3075C6.90101 10.7975 7.02901 11.2745 7.22901 11.7205C7.63801 12.6225 8.31101 13.5775 9.19901 14.4625C9.41301 14.6755 9.62301 14.8895 9.84901 15.0885C10.9524 16.06 12.2673 16.7605 13.689 17.1345L14.257 17.2215C14.442 17.2315 14.627 17.2175 14.813 17.2085C15.1043 17.1935 15.3886 17.1146 15.646 16.9775C15.777 16.91 15.9048 16.8366 16.029 16.7575C16.029 16.7575 16.072 16.7295 16.154 16.6675C16.289 16.5675 16.372 16.4965 16.484 16.3795C16.567 16.2935 16.639 16.1925 16.694 16.0775C16.772 15.9145 16.85 15.6035 16.882 15.3445C16.906 15.1465 16.899 15.0385 16.896 14.9715C16.892 14.8645 16.803 14.7535 16.706 14.7065L16.124 14.4455C16.124 14.4455 15.254 14.0665 14.722 13.8245C14.6663 13.8002 14.6067 13.7863 14.546 13.7835C14.4776 13.7765 14.4085 13.7842 14.3433 13.8061C14.2781 13.828 14.2183 13.8636 14.168 13.9105C14.163 13.9085 14.096 13.9655 13.373 14.8415C13.3315 14.8973 13.2744 14.9394 13.2088 14.9626C13.1433 14.9857 13.0723 14.9888 13.005 14.9715C12.9399 14.954 12.876 14.932 12.814 14.9055C12.69 14.8535 12.647 14.8335 12.562 14.7975C11.9881 14.547 11.4567 14.2086 10.987 13.7945C10.861 13.6845 10.744 13.5645 10.624 13.4485C10.2306 13.0717 9.88774 12.6455 9.60401 12.1805L9.54501 12.0855C9.50264 12.0217 9.46837 11.9528 9.44301 11.8805C9.40501 11.7335 9.50401 11.6155 9.50401 11.6155C9.50401 11.6155 9.74701 11.3495 9.86001 11.2055C9.97001 11.0655 10.063 10.9295 10.123 10.8325C10.241 10.6425 10.278 10.4475 10.216 10.2965C9.93601 9.6125 9.64601 8.9315 9.34801 8.2555C9.28901 8.1215 9.11401 8.0255 8.95501 8.0065C8.90101 8.0005 8.84701 7.9945 8.79301 7.9905C8.65872 7.98383 8.52415 7.98516 8.39001 7.9945L8.59201 7.9875Z" fill="#C7C7C7"/>
</svg>
