<svg width="24" height="25" viewBox="0 0 24 25" fill="none" xmlns="http://www.w3.org/2000/svg">
<path d="M12.0001 9.56329C10.2798 9.56329 8.87589 10.9672 8.87589 12.6875C8.87589 14.4078 10.2798 15.8117 12.0001 15.8117C13.7204 15.8117 15.1243 14.4078 15.1243 12.6875C15.1243 10.9672 13.7204 9.56329 12.0001 9.56329ZM21.3704 12.6875C21.3704 11.3938 21.3821 10.1117 21.3095 8.82033C21.2368 7.32033 20.8946 5.98908 19.7978 4.8922C18.6985 3.79298 17.3696 3.45314 15.8696 3.38048C14.5759 3.30783 13.2939 3.31954 12.0025 3.31954C10.7087 3.31954 9.42667 3.30783 8.13527 3.38048C6.63527 3.45314 5.30402 3.79533 4.20714 4.8922C3.10792 5.99142 2.76808 7.32033 2.69542 8.82033C2.62277 10.1141 2.63449 11.3961 2.63449 12.6875C2.63449 13.9789 2.62277 15.2633 2.69542 16.5547C2.76808 18.0547 3.11027 19.386 4.20714 20.4828C5.30636 21.582 6.63527 21.9219 8.13527 21.9945C9.42902 22.0672 10.711 22.0555 12.0025 22.0555C13.2962 22.0555 14.5782 22.0672 15.8696 21.9945C17.3696 21.9219 18.7009 21.5797 19.7978 20.4828C20.897 19.3836 21.2368 18.0547 21.3095 16.5547C21.3845 15.2633 21.3704 13.9813 21.3704 12.6875ZM12.0001 17.4945C9.33995 17.4945 7.19308 15.3477 7.19308 12.6875C7.19308 10.0274 9.33995 7.88048 12.0001 7.88048C14.6603 7.88048 16.8071 10.0274 16.8071 12.6875C16.8071 15.3477 14.6603 17.4945 12.0001 17.4945ZM17.004 8.80626C16.3829 8.80626 15.8814 8.3047 15.8814 7.68361C15.8814 7.06251 16.3829 6.56095 17.004 6.56095C17.6251 6.56095 18.1267 7.06251 18.1267 7.68361C18.1269 7.83109 18.0979 7.97716 18.0416 8.11345C17.9852 8.24974 17.9026 8.37357 17.7983 8.47786C17.694 8.58214 17.5701 8.66483 17.4339 8.72118C17.2976 8.77754 17.1515 8.80645 17.004 8.80626Z" fill="#C7C7C7"/>
</svg>
