<svg width="24" height="25" viewBox="0 0 24 25" fill="none" xmlns="http://www.w3.org/2000/svg">
<path d="M12 2.6875C6.48 2.6875 2 7.1675 2 12.6875C2 18.2075 6.48 22.6875 12 22.6875C17.52 22.6875 22 18.2075 22 12.6875C22 7.1675 17.52 2.6875 12 2.6875ZM16.64 9.4875C16.49 11.0675 15.84 14.9075 15.51 16.6775C15.37 17.4275 15.09 17.6775 14.83 17.7075C14.25 17.7575 13.81 17.3275 13.25 16.9575C12.37 16.3775 11.87 16.0175 11.02 15.4575C10.03 14.8075 10.67 14.4475 11.24 13.8675C11.39 13.7175 13.95 11.3875 14 11.1775C14.0069 11.1457 14.006 11.1127 13.9973 11.0813C13.9886 11.0499 13.9724 11.0212 13.95 10.9975C13.89 10.9475 13.81 10.9675 13.74 10.9775C13.65 10.9975 12.25 11.9275 9.52 13.7675C9.12 14.0375 8.76 14.1775 8.44 14.1675C8.08 14.1575 7.4 13.9675 6.89 13.7975C6.26 13.5975 5.77 13.4875 5.81 13.1375C5.83 12.9575 6.08 12.7775 6.55 12.5875C9.47 11.3175 11.41 10.4775 12.38 10.0775C15.16 8.9175 15.73 8.7175 16.11 8.7175C16.19 8.7175 16.38 8.7375 16.5 8.8375C16.6 8.9175 16.63 9.0275 16.64 9.1075C16.63 9.1675 16.65 9.3475 16.64 9.4875Z" fill="#C7C7C7"/>
</svg>
